<svg width="880" height="801" viewBox="0 0 880 801" fill="none" xmlns="http://www.w3.org/2000/svg">
<g filter="url(#filter0_f_1391_5814)">
<ellipse cx="399.856" cy="406.135" rx="98.2798" ry="149.429" transform="rotate(93.4707 399.856 406.135)" fill="#FFF25D"/>
</g>
<mask id="mask0_1391_5814" style="mask-type:alpha" maskUnits="userSpaceOnUse" x="-240" y="170" width="647" height="696">
<path d="M-239.322 561.181L19.0651 865.231L349.633 566.906L406.407 492.963L352.32 255.061L224.3 170.934L6.84165 346.706L-239.322 561.181Z" fill="url(#paint0_linear_1391_5814)"/>
</mask>
<g mask="url(#mask0_1391_5814)">
<mask id="mask1_1391_5814" style="mask-type:alpha" maskUnits="userSpaceOnUse" x="-251" y="160" width="715" height="672">
<path d="M247.992 160.35C347.104 283.305 457.988 449.667 463.329 455.463L-6.37014 831.972L-250.33 574.472L247.992 160.35Z" fill="url(#paint1_linear_1391_5814)"/>
</mask>
<g mask="url(#mask1_1391_5814)">
<path d="M281.405 522.514C238.871 556.894 167.555 541.812 135.679 502.376C103.803 462.94 79.1892 397.271 124.824 360.384C147.439 342.105 153.588 293.549 196.33 291.47C239.839 289.353 277.095 348.165 293.175 368.059C325.051 407.495 323.939 488.133 281.405 522.514Z" fill="#FFFF91"/>
<g filter="url(#filter1_f_1391_5814)">
<path d="M279.192 518.725C233.576 555.597 173.326 547.834 148.578 517.218C123.831 486.601 108.565 432.511 154.181 395.639C176.786 377.367 187.046 333.919 226.227 327.457C266.111 320.879 293.647 367.661 306.131 383.106C330.879 413.722 324.809 481.853 279.192 518.725Z" fill="#FFFF91"/>
</g>
<g filter="url(#filter2_f_1391_5814)">
<path d="M277.806 519.84C226.679 561.166 156.004 548.574 125.446 510.769C94.8879 472.964 74.0761 407.759 125.203 366.433C150.539 345.954 157.233 291.312 202.552 285.807C248.684 280.203 285.978 340.594 301.393 359.665C331.951 397.47 328.933 478.514 277.806 519.84Z" fill="#FFFF91"/>
</g>
<g filter="url(#filter3_f_1391_5814)">
<path d="M261.908 512.277C190.498 553.049 94.3985 541.109 54.8631 492.197C15.3276 443.286 4.62622 364.513 65.943 314.95C96.3284 290.389 92.3 205.508 148.088 200.685C204.879 195.775 273.446 288.051 293.39 312.724C332.925 361.636 344.632 465.046 261.908 512.277Z" fill="#FFFF91"/>
</g>
<g filter="url(#filter4_f_1391_5814)">
<path d="M235.35 513.246C169.328 566.612 56.8371 553.348 18.183 505.526C-20.4712 457.705 -27.7612 378.123 38.2609 324.757C70.9781 298.312 95.951 247.952 154.071 240.347C213.234 232.605 312.679 316.166 332.178 340.289C370.832 388.111 301.372 459.88 235.35 513.246Z" fill="#FFFF91"/>
</g>
<g filter="url(#filter5_f_1391_5814)">
<path d="M189.51 518.739C121.282 573.887 10.4463 556.909 -29.0892 507.998C-68.6246 459.086 -75.715 377.394 -7.48721 322.245C26.323 294.917 130.292 320.282 190.149 312.17C251.081 303.912 295.705 378.137 315.648 402.811C355.184 451.723 257.738 463.59 189.51 518.739Z" fill="#FFFF91"/>
</g>
<g filter="url(#filter6_f_1391_5814)">
<path d="M247.115 485.038C187.415 533.293 83.9217 510.381 44.3863 461.469C4.85079 412.557 -6.69577 334.467 53.0035 286.212C82.5874 262.299 107.991 220.254 162.827 216.201C218.648 212.075 264.434 285.36 284.378 310.034C323.913 358.946 306.814 436.783 247.115 485.038Z" fill="#FFFF91"/>
</g>
</g>
</g>
<mask id="mask2_1391_5814" style="mask-type:alpha" maskUnits="userSpaceOnUse" x="-591" y="-102" width="1205" height="1033">
<path d="M613.488 456.509C488.746 660.166 329.567 919.934 324.337 930.675L-590.533 372.778L-301.382 -101.389L613.488 456.509Z" fill="url(#paint2_linear_1391_5814)"/>
</mask>
<g mask="url(#mask2_1391_5814)">
<path d="M-19.9272 466.425C-75.9332 432.272 -93.5736 355.268 -67.1732 311.975C-40.7728 268.682 16.5444 225.693 76.6339 262.336C106.411 280.495 160.214 273.602 182.445 316.735C205.076 360.643 160.88 414.695 147.562 436.534C121.162 479.827 36.0787 500.578 -19.9272 466.425Z" fill="#02FE28"/>
<g filter="url(#filter7_f_1391_5814)">
<path d="M-16.993 463.128C-77.058 426.5 -94.7327 358.777 -72.0397 321.564C-49.3468 284.351 3.09573 249.335 63.1607 285.963C92.9259 304.114 144.826 300.309 168.889 340.406C193.384 381.222 154.248 426.985 142.801 445.757C120.108 482.97 43.072 499.756 -16.993 463.128Z" fill="#02FE28"/>
</g>
<g filter="url(#filter8_f_1391_5814)">
<path d="M-18.8097 462.017C-86.1309 420.964 -103.104 340.409 -75.1264 294.53C-47.1488 248.65 14.9666 203.931 82.2877 244.984C115.649 265.328 178.191 253.893 203.895 300.91C230.06 348.772 180.361 409.631 166.247 432.775C138.27 478.655 48.5115 503.071 -18.8097 462.017Z" fill="#02FE28"/>
</g>
<g filter="url(#filter9_f_1391_5814)">
<path d="M-23.2704 451.845C-99.5251 389.905 -132.086 288.416 -99.3422 234.72C-66.598 181.024 10.9867 148.702 91.725 197.937C131.735 222.336 218.856 195.178 250.085 250.904C281.875 307.632 226.213 374.157 209.695 401.243C176.951 454.939 65.0663 523.599 -23.2704 451.845Z" fill="#02FE28"/>
</g>
<g filter="url(#filter10_f_1391_5814)">
<path d="M-38.022 413.038C-124.956 360.024 -157.609 245.204 -125.595 192.705C-93.5807 140.207 -13.5477 111.153 73.3864 164.166C116.466 190.437 180.992 202.299 216.232 259.654C252.105 318.039 196.595 382.416 180.445 408.899C148.431 461.398 48.9121 466.051 -38.022 413.038Z" fill="#02FE28"/>
</g>
<g filter="url(#filter11_f_1391_5814)">
<path d="M-59.0775 371.449C-148.916 316.665 -183.107 198.742 -150.363 145.046C-117.619 91.3507 -35.2793 61.9281 54.559 116.712C99.0783 143.861 165.629 156.332 202.216 215.325C239.46 275.379 182.558 341.147 166.04 368.234C133.296 421.93 30.7608 426.233 -59.0775 371.449Z" fill="#02FE28"/>
</g>
<g filter="url(#filter12_f_1391_5814)">
<path d="M3.28703 421.193C-75.3215 373.257 -99.8453 261.23 -67.1011 207.534C-34.3569 153.838 42.115 120.838 120.724 168.774C159.678 192.529 215.686 207.088 245.661 262.05C276.175 317.999 220.803 384.701 204.285 411.788C171.541 465.484 81.8956 469.129 3.28703 421.193Z" fill="#02FE28"/>
</g>
</g>
<mask id="mask3_1391_5814" style="mask-type:alpha" maskUnits="userSpaceOnUse" x="-347" y="-45" width="705" height="662">
<path d="M196.826 616.834C-56.6678 534.758 -333.328 445.11 -346.117 441.53L-185.555 -44.1601L357.387 131.144L196.826 616.834Z" fill="url(#paint3_linear_1391_5814)"/>
</mask>
<g mask="url(#mask3_1391_5814)">
<path d="M-22.6583 312.726C-11.6375 278.593 32.9281 261.293 64.575 271.511C96.2219 281.729 133.292 308.955 121.467 345.577C115.608 363.725 129.648 392.59 106.927 409.063C83.7978 425.832 42.2468 406.905 26.2824 401.75C-5.36445 391.532 -33.6791 346.859 -22.6583 312.726Z" fill="#FFFF91"/>
<g filter="url(#filter13_f_1391_5814)">
<path d="M-20.0796 314.011C-8.26009 277.404 27.6044 260.054 52.174 267.987C76.7436 275.92 104.527 300.142 92.7078 336.749C86.8506 354.89 96.8021 382.425 77.6081 400.027C58.0694 417.945 26.1702 402.137 13.7761 398.135C-10.7935 390.202 -31.8992 350.618 -20.0796 314.011Z" fill="#FFFF91"/>
</g>
<g filter="url(#filter14_f_1391_5814)">
<path d="M-19.7193 312.903C-6.47187 271.874 36.8489 253.436 67.1871 263.232C97.5253 273.027 132.341 301.362 119.093 342.391C112.529 362.723 128.453 395.125 105.546 414.404C82.2272 434.028 40.0889 414.248 24.7847 409.307C-5.55348 399.511 -32.9667 353.932 -19.7193 312.903Z" fill="#FFFF91"/>
</g>
<g filter="url(#filter15_f_1391_5814)">
<path d="M-8.27739 311.351C16.3049 263.351 73.351 235.436 112.602 248.11C151.854 260.783 185.985 300.194 170.097 349.401C162.224 373.785 194.883 418.943 165.983 441.603C136.563 464.669 65.8176 438.601 46.0172 432.207C6.76595 419.534 -36.7546 366.957 -8.27739 311.351Z" fill="#FFFF91"/>
</g>
<g filter="url(#filter16_f_1391_5814)">
<path d="M5.95633 301.295C23.0632 248.313 89.5836 215.245 127.96 227.636C166.336 240.027 198.885 281.106 181.778 334.088C173.3 360.343 177.653 396.951 148.471 421.974C118.764 447.447 34.192 437.239 14.833 430.988C-23.5433 418.597 -11.1505 354.277 5.95633 301.295Z" fill="#FFFF91"/>
</g>
<g filter="url(#filter17_f_1391_5814)">
<path d="M29.15 281.835C46.8284 227.083 113.772 196.648 153.023 209.321C192.275 221.994 225.47 264.304 207.792 319.056C199.032 346.188 132.85 369.555 102.895 395.479C72.4025 421.87 21.2778 397.123 1.47743 390.73C-37.7739 378.057 11.4717 336.587 29.15 281.835Z" fill="#FFFF91"/>
</g>
<g filter="url(#filter18_f_1391_5814)">
<path d="M9.61679 321.002C25.0853 273.093 90.1267 248.55 129.378 261.224C168.629 273.897 202.98 312.63 187.511 360.538C179.846 384.279 180.979 416.476 152.326 438.371C123.158 460.66 71.7319 436.846 51.9315 430.453C12.6802 417.78 -5.85175 368.91 9.61679 321.002Z" fill="#FFFF91"/>
</g>
</g>
<g filter="url(#filter19_f_1391_5814)">
<ellipse cx="816.78" cy="540.965" rx="115.318" ry="175.335" transform="rotate(-91.7156 816.78 540.965)" fill="#FF5DB6"/>
</g>
<mask id="mask4_1391_5814" style="mask-type:alpha" maskUnits="userSpaceOnUse" x="519" y="50" width="791" height="773">
<path d="M1309.77 308.833L1001.22 50.8665L578.345 373.188L519.844 465.617L608.281 737.882L766.803 822.611L1002.27 594.146L1309.77 308.833Z" fill="url(#paint4_linear_1391_5814)"/>
</mask>
<g mask="url(#mask4_1391_5814)">
<mask id="mask5_1391_5814" style="mask-type:alpha" maskUnits="userSpaceOnUse" x="457" y="10" width="859" height="828">
<path d="M740.238 837.493C611.378 704.325 464.159 521.683 457.303 515.476L1002.95 10.9664L1315.34 285.994L740.238 837.493Z" fill="url(#paint5_linear_1391_5814)"/>
</mask>
<g mask="url(#mask5_1391_5814)">
<path d="M662.768 417.827C708.825 373.141 793.762 383.2 835.194 425.902C876.625 468.604 912.353 542.732 862.939 590.677C838.451 614.436 836.415 671.829 786.69 678.792C736.071 685.88 686.298 621.106 665.398 599.565C623.966 556.863 616.712 462.514 662.768 417.827Z" fill="#DC91FF"/>
<g filter="url(#filter20_f_1391_5814)">
<path d="M665.77 422.021C715.165 374.095 786.394 376.775 818.56 409.928C850.727 443.08 874.303 504.669 824.908 552.594C800.431 576.343 793.05 628.203 747.95 639.91C702.041 651.827 664.902 600.08 648.675 583.357C616.509 550.204 616.376 469.946 665.77 422.021Z" fill="#DC91FF"/>
</g>
<g filter="url(#filter21_f_1391_5814)">
<path d="M667.27 420.571C722.632 366.857 806.556 374.075 846.274 415.011C885.992 455.948 917.228 529.935 861.867 583.65C834.432 610.268 832.406 674.831 780.032 686.07C726.718 697.512 676.732 630.897 656.696 610.247C616.978 569.311 611.908 474.286 667.27 420.571Z" fill="#DC91FF"/>
</g>
<g filter="url(#filter22_f_1391_5814)">
<path d="M686.65 427.722C765.771 372.504 879.336 376.264 930.724 429.226C982.111 482.189 1002.97 573.105 936.576 637.525C903.674 669.449 917.385 768.21 852.704 779.764C786.862 791.525 696.95 690.968 671.028 664.251C619.64 611.288 594.992 491.689 686.65 427.722Z" fill="#DC91FF"/>
</g>
<g filter="url(#filter23_f_1391_5814)">
<path d="M717.576 423.774C789.067 354.41 921.926 357.979 972.168 409.761C1022.41 461.543 1039.37 553.765 967.879 623.129C932.452 657.502 908.611 719 841.502 734.051C773.186 749.374 648.117 662.276 622.773 636.154C572.531 584.372 646.086 493.138 717.576 423.774Z" fill="#DC91FF"/>
</g>
<g filter="url(#filter24_f_1391_5814)">
<path d="M770.565 412.494C844.444 340.813 975.763 348.897 1027.15 401.86C1078.54 454.823 1095.49 549.532 1021.61 621.213C984.999 656.735 860.815 638.121 791.729 653.95C721.401 670.062 661.384 588.059 635.461 561.342C584.074 508.379 696.687 484.176 770.565 412.494Z" fill="#DC91FF"/>
</g>
<g filter="url(#filter25_f_1391_5814)">
<path d="M706.823 457.984C771.467 395.263 894.836 411.06 946.223 464.023C997.611 516.986 1019.39 607.014 954.742 669.735C922.708 700.816 897.482 752.643 833.833 763.196C769.04 773.938 707.764 693.156 681.841 666.439C630.454 613.476 642.179 520.705 706.823 457.984Z" fill="#DC91FF"/>
</g>
</g>
</g>
<mask id="mask6_1391_5814" style="mask-type:alpha" maskUnits="userSpaceOnUse" x="578" y="243" width="804" height="689">
<path d="M578.922 629.984C660.972 463.832 765.674 251.894 769.103 243.296L1381.49 544.478L1191.3 931.166L578.922 629.984Z" fill="url(#paint6_linear_1391_5814)"/>
</mask>
<g mask="url(#mask6_1391_5814)">
<path d="M1020.87 451.409C1089.94 485.378 1118.72 573.492 1092.46 626.882C1066.2 680.273 1003.79 736.587 929.681 700.141C892.959 682.08 830.818 695.841 800.264 647.796C769.162 598.887 815.074 531.036 828.321 504.103C854.579 450.713 951.803 417.439 1020.87 451.409Z" fill="#02FED1"/>
<g filter="url(#filter26_f_1391_5814)">
<path d="M1017.79 455.573C1091.87 492.004 1119.7 569.267 1097.13 615.16C1074.56 661.052 1016.99 707.533 942.919 671.102C906.212 653.048 845.967 663 813.595 618.697C780.642 573.598 821.521 515.971 832.907 492.821C855.478 446.928 943.718 419.142 1017.79 455.573Z" fill="#02FED1"/>
</g>
<g filter="url(#filter27_f_1391_5814)">
<path d="M1020.03 456.678C1103.06 497.51 1131.43 589.844 1103.61 646.424C1075.78 703.004 1007.94 761.849 924.914 721.017C883.772 700.782 811.9 720.778 776.877 668.562C741.225 615.408 792.846 539.019 806.884 510.477C834.711 453.897 937.009 415.845 1020.03 456.678Z" fill="#02FED1"/>
</g>
<g filter="url(#filter28_f_1391_5814)">
<path d="M1026.32 468.091C1122 532.383 1170.81 647.526 1138.25 713.745C1105.68 779.965 1018.44 825.964 918.874 776.994C869.532 752.727 770.607 793.703 728.203 731.895C685.038 668.978 743.026 585.336 759.455 551.931C792.023 485.712 915.484 393.612 1026.32 468.091Z" fill="#02FED1"/>
</g>
<g filter="url(#filter29_f_1391_5814)">
<path d="M1047.67 511.874C1154.88 564.603 1205.22 695.314 1173.38 760.057C1141.54 824.8 1051.09 867.24 943.884 814.512C890.756 788.383 814.097 781.365 766.833 718.08C718.72 653.659 776.759 572.542 792.822 539.883C824.664 475.139 940.464 459.146 1047.67 511.874Z" fill="#02FED1"/>
</g>
<g filter="url(#filter30_f_1391_5814)">
<path d="M1076.69 558.24C1187.49 612.73 1239.95 746.903 1207.38 813.123C1174.81 879.342 1081.71 922.458 970.922 867.968C916.019 840.965 836.927 833.451 787.916 768.394C738.025 702.169 797.542 619.279 813.971 585.875C846.54 519.655 965.902 503.751 1076.69 558.24Z" fill="#02FED1"/>
</g>
<g filter="url(#filter31_f_1391_5814)">
<path d="M998.54 506.726C1095.48 554.405 1136.02 682.714 1103.46 748.934C1070.89 815.153 985.025 861.828 888.082 814.149C840.042 790.522 773.049 779.449 732.192 718.402C690.601 656.259 748.231 572.441 764.66 539.036C797.228 472.817 901.597 459.048 998.54 506.726Z" fill="#02FED1"/>
</g>
</g>
<mask id="mask7_1391_5814" style="mask-type:alpha" maskUnits="userSpaceOnUse" x="615" y="298" width="532" height="675">
<path d="M750.027 298.283C935.167 340.294 1137.23 386.225 1146.58 387.707L1012.07 972.655L615.519 883.231L750.027 298.283Z" fill="url(#paint7_linear_1391_5814)"/>
</mask>
<g mask="url(#mask7_1391_5814)">
<path d="M1040.36 630.731C1031.1 671.786 980.855 696.73 942.79 688.146C904.725 679.562 858.519 651.678 868.452 607.629C873.375 585.801 853.906 553.559 878.709 531.9C903.959 509.851 954.521 527.562 973.723 531.892C1011.79 540.475 1049.61 589.675 1040.36 630.731Z" fill="#DC91FF"/>
<path d="M1037.21 629.503C1027.28 673.534 987.211 697.612 957.658 690.948C928.106 684.284 893.07 658.926 902.999 614.895C907.919 593.076 893.37 561.955 913.932 539.35C934.864 516.339 973.816 531.429 988.724 534.79C1018.28 541.454 1047.14 585.472 1037.21 629.503Z" fill="#DC91FF"/>
<g filter="url(#filter33_f_1391_5814)">
<path d="M1036.91 630.836C1025.78 680.186 977.111 706.326 940.62 698.098C904.129 689.869 860.44 660.451 871.569 611.101C877.084 586.645 855.038 550.471 879.762 525.513C904.929 500.108 956.269 518.752 974.676 522.903C1011.17 531.132 1048.04 581.486 1036.91 630.836Z" fill="#DC91FF"/>
</g>
<g filter="url(#filter34_f_1391_5814)">
<path d="M1023.7 633.863C1000.06 692.561 936.362 731.232 889.15 720.586C841.938 709.939 797.874 667.505 811.22 608.32C817.834 578.99 774.881 529.684 806.249 500.14C838.18 470.065 923.616 493.024 947.432 498.394C994.643 509.041 1051.08 565.864 1023.7 633.863Z" fill="#DC91FF"/>
</g>
<g filter="url(#filter35_f_1391_5814)">
<path d="M1008.13 647.124C993.761 710.851 919.536 756.548 873.376 746.139C827.217 735.73 784.826 691.179 799.196 627.452C806.318 595.872 797.348 553.556 828.795 521.219C860.807 488.302 960.718 491.261 984.003 496.512C1030.16 506.921 1022.5 583.397 1008.13 647.124Z" fill="#DC91FF"/>
</g>
<g filter="url(#filter36_f_1391_5814)">
<path d="M983.088 672.324C968.237 738.18 893.238 780.846 846.026 770.2C798.814 759.553 755.536 713.634 770.386 647.777C777.746 615.142 852.605 580.817 884.858 547.346C917.692 513.273 980.059 536.768 1003.87 542.138C1051.09 552.785 997.939 606.468 983.088 672.324Z" fill="#DC91FF"/>
</g>
<g filter="url(#filter37_f_1391_5814)">
<path d="M1001.77 624.485C988.777 682.109 915.376 717.687 868.164 707.041C820.952 696.395 776.704 654.776 789.698 597.152C796.138 568.596 791.398 531.093 822.559 502.468C854.279 473.329 916.899 495.702 940.715 501.072C987.927 511.719 1014.77 566.86 1001.77 624.485Z" fill="#DC91FF"/>
</g>
</g>
<defs>
<filter id="filter0_f_1391_5814" x="159.675" y="216.708" width="480.362" height="378.855" filterUnits="userSpaceOnUse" color-interpolation-filters="sRGB">
<feFlood flood-opacity="0" result="BackgroundImageFix"/>
<feBlend mode="normal" in="SourceGraphic" in2="BackgroundImageFix" result="shape"/>
<feGaussianBlur stdDeviation="45.4525" result="effect1_foregroundBlur_1391_5814"/>
</filter>
<filter id="filter1_f_1391_5814" x="121.234" y="323.191" width="202.916" height="223.843" filterUnits="userSpaceOnUse" color-interpolation-filters="sRGB">
<feFlood flood-opacity="0" result="BackgroundImageFix"/>
<feBlend mode="normal" in="SourceGraphic" in2="BackgroundImageFix" result="shape"/>
<feGaussianBlur stdDeviation="1.8181" result="effect1_foregroundBlur_1391_5814"/>
</filter>
<filter id="filter2_f_1391_5814" x="81.4725" y="272.715" width="252.306" height="285.537" filterUnits="userSpaceOnUse" color-interpolation-filters="sRGB">
<feFlood flood-opacity="0" result="BackgroundImageFix"/>
<feBlend mode="normal" in="SourceGraphic" in2="BackgroundImageFix" result="shape"/>
<feGaussianBlur stdDeviation="6.36336" result="effect1_foregroundBlur_1391_5814"/>
</filter>
<filter id="filter3_f_1391_5814" x="4.40248" y="182.315" width="337.579" height="372.796" filterUnits="userSpaceOnUse" color-interpolation-filters="sRGB">
<feFlood flood-opacity="0" result="BackgroundImageFix"/>
<feBlend mode="normal" in="SourceGraphic" in2="BackgroundImageFix" result="shape"/>
<feGaussianBlur stdDeviation="9.09051" result="effect1_foregroundBlur_1391_5814"/>
</filter>
<filter id="filter4_f_1391_5814" x="-60.2679" y="190.754" width="452.646" height="406.07" filterUnits="userSpaceOnUse" color-interpolation-filters="sRGB">
<feFlood flood-opacity="0" result="BackgroundImageFix"/>
<feBlend mode="normal" in="SourceGraphic" in2="BackgroundImageFix" result="shape"/>
<feGaussianBlur stdDeviation="24.5444" result="effect1_foregroundBlur_1391_5814"/>
</filter>
<filter id="filter5_f_1391_5814" x="-180.697" y="187.374" width="627.296" height="487.511" filterUnits="userSpaceOnUse" color-interpolation-filters="sRGB">
<feFlood flood-opacity="0" result="BackgroundImageFix"/>
<feBlend mode="normal" in="SourceGraphic" in2="BackgroundImageFix" result="shape"/>
<feGaussianBlur stdDeviation="60.9064" result="effect1_foregroundBlur_1391_5814"/>
</filter>
<filter id="filter6_f_1391_5814" x="-44.8875" y="159.672" width="406.965" height="408.393" filterUnits="userSpaceOnUse" color-interpolation-filters="sRGB">
<feFlood flood-opacity="0" result="BackgroundImageFix"/>
<feBlend mode="normal" in="SourceGraphic" in2="BackgroundImageFix" result="shape"/>
<feGaussianBlur stdDeviation="28.1806" result="effect1_foregroundBlur_1391_5814"/>
</filter>
<filter id="filter7_f_1391_5814" x="-85.1992" y="266.83" width="265.639" height="220.373" filterUnits="userSpaceOnUse" color-interpolation-filters="sRGB">
<feFlood flood-opacity="0" result="BackgroundImageFix"/>
<feBlend mode="normal" in="SourceGraphic" in2="BackgroundImageFix" result="shape"/>
<feGaussianBlur stdDeviation="1.8181" result="effect1_foregroundBlur_1391_5814"/>
</filter>
<filter id="filter8_f_1391_5814" x="-100.755" y="216.088" width="324.865" height="279.595" filterUnits="userSpaceOnUse" color-interpolation-filters="sRGB">
<feFlood flood-opacity="0" result="BackgroundImageFix"/>
<feBlend mode="normal" in="SourceGraphic" in2="BackgroundImageFix" result="shape"/>
<feGaussianBlur stdDeviation="6.36336" result="effect1_foregroundBlur_1391_5814"/>
</filter>
<filter id="filter9_f_1391_5814" x="-130.201" y="155.448" width="408.102" height="345.457" filterUnits="userSpaceOnUse" color-interpolation-filters="sRGB">
<feFlood flood-opacity="0" result="BackgroundImageFix"/>
<feBlend mode="normal" in="SourceGraphic" in2="BackgroundImageFix" result="shape"/>
<feGaussianBlur stdDeviation="9.09051" result="effect1_foregroundBlur_1391_5814"/>
</filter>
<filter id="filter10_f_1391_5814" x="-186.733" y="86.9669" width="463.901" height="412.726" filterUnits="userSpaceOnUse" color-interpolation-filters="sRGB">
<feFlood flood-opacity="0" result="BackgroundImageFix"/>
<feBlend mode="normal" in="SourceGraphic" in2="BackgroundImageFix" result="shape"/>
<feGaussianBlur stdDeviation="24.5444" result="effect1_foregroundBlur_1391_5814"/>
</filter>
<filter id="filter11_f_1391_5814" x="-284.36" y="-34.3686" width="620.797" height="566.752" filterUnits="userSpaceOnUse" color-interpolation-filters="sRGB">
<feFlood flood-opacity="0" result="BackgroundImageFix"/>
<feBlend mode="normal" in="SourceGraphic" in2="BackgroundImageFix" result="shape"/>
<feGaussianBlur stdDeviation="60.9064" result="effect1_foregroundBlur_1391_5814"/>
</filter>
<filter id="filter12_f_1391_5814" x="-137.579" y="89.2187" width="448.618" height="421.902" filterUnits="userSpaceOnUse" color-interpolation-filters="sRGB">
<feFlood flood-opacity="0" result="BackgroundImageFix"/>
<feBlend mode="normal" in="SourceGraphic" in2="BackgroundImageFix" result="shape"/>
<feGaussianBlur stdDeviation="28.1806" result="effect1_foregroundBlur_1391_5814"/>
</filter>
<filter id="filter13_f_1391_5814" x="-25.8418" y="263.712" width="123.743" height="147.072" filterUnits="userSpaceOnUse" color-interpolation-filters="sRGB">
<feFlood flood-opacity="0" result="BackgroundImageFix"/>
<feBlend mode="normal" in="SourceGraphic" in2="BackgroundImageFix" result="shape"/>
<feGaussianBlur stdDeviation="1.19237" result="effect1_foregroundBlur_1391_5814"/>
</filter>
<filter id="filter14_f_1391_5814" x="-31.4882" y="252.306" width="161.823" height="178.956" filterUnits="userSpaceOnUse" color-interpolation-filters="sRGB">
<feFlood flood-opacity="0" result="BackgroundImageFix"/>
<feBlend mode="normal" in="SourceGraphic" in2="BackgroundImageFix" result="shape"/>
<feGaussianBlur stdDeviation="4.17329" result="effect1_foregroundBlur_1391_5814"/>
</filter>
<filter id="filter15_f_1391_5814" x="-29.3573" y="233.135" width="219.442" height="229.744" filterUnits="userSpaceOnUse" color-interpolation-filters="sRGB">
<feFlood flood-opacity="0" result="BackgroundImageFix"/>
<feBlend mode="normal" in="SourceGraphic" in2="BackgroundImageFix" result="shape"/>
<feGaussianBlur stdDeviation="5.96184" result="effect1_foregroundBlur_1391_5814"/>
</filter>
<filter id="filter16_f_1391_5814" x="-42.6261" y="192.84" width="261.272" height="277.735" filterUnits="userSpaceOnUse" color-interpolation-filters="sRGB">
<feFlood flood-opacity="0" result="BackgroundImageFix"/>
<feBlend mode="normal" in="SourceGraphic" in2="BackgroundImageFix" result="shape"/>
<feGaussianBlur stdDeviation="16.097" result="effect1_foregroundBlur_1391_5814"/>
</filter>
<filter id="filter17_f_1391_5814" x="-93.2144" y="126.575" width="385.77" height="360.711" filterUnits="userSpaceOnUse" color-interpolation-filters="sRGB">
<feFlood flood-opacity="0" result="BackgroundImageFix"/>
<feBlend mode="normal" in="SourceGraphic" in2="BackgroundImageFix" result="shape"/>
<feGaussianBlur stdDeviation="39.9443" result="effect1_foregroundBlur_1391_5814"/>
</filter>
<filter id="filter18_f_1391_5814" x="-32.7925" y="220.952" width="261.058" height="263.714" filterUnits="userSpaceOnUse" color-interpolation-filters="sRGB">
<feFlood flood-opacity="0" result="BackgroundImageFix"/>
<feBlend mode="normal" in="SourceGraphic" in2="BackgroundImageFix" result="shape"/>
<feGaussianBlur stdDeviation="18.4817" result="effect1_foregroundBlur_1391_5814"/>
</filter>
<filter id="filter19_f_1391_5814" x="513.654" y="297.742" width="606.253" height="486.447" filterUnits="userSpaceOnUse" color-interpolation-filters="sRGB">
<feFlood flood-opacity="0" result="BackgroundImageFix"/>
<feBlend mode="normal" in="SourceGraphic" in2="BackgroundImageFix" result="shape"/>
<feGaussianBlur stdDeviation="63.9178" result="effect1_foregroundBlur_1391_5814"/>
</filter>
<filter id="filter20_f_1391_5814" x="621.191" y="380.354" width="237.227" height="266.434" filterUnits="userSpaceOnUse" color-interpolation-filters="sRGB">
<feFlood flood-opacity="0" result="BackgroundImageFix"/>
<feBlend mode="normal" in="SourceGraphic" in2="BackgroundImageFix" result="shape"/>
<feGaussianBlur stdDeviation="2.55671" result="effect1_foregroundBlur_1391_5814"/>
</filter>
<filter id="filter21_f_1391_5814" x="608.401" y="364.398" width="301.256" height="340.881" filterUnits="userSpaceOnUse" color-interpolation-filters="sRGB">
<feFlood flood-opacity="0" result="BackgroundImageFix"/>
<feBlend mode="normal" in="SourceGraphic" in2="BackgroundImageFix" result="shape"/>
<feGaussianBlur stdDeviation="8.94849" result="effect1_foregroundBlur_1391_5814"/>
</filter>
<filter id="filter22_f_1391_5814" x="599.576" y="362.315" width="404.367" height="443.968" filterUnits="userSpaceOnUse" color-interpolation-filters="sRGB">
<feFlood flood-opacity="0" result="BackgroundImageFix"/>
<feBlend mode="normal" in="SourceGraphic" in2="BackgroundImageFix" result="shape"/>
<feGaussianBlur stdDeviation="12.7836" result="effect1_foregroundBlur_1391_5814"/>
</filter>
<filter id="filter23_f_1391_5814" x="537.189" y="302.222" width="547.637" height="502.656" filterUnits="userSpaceOnUse" color-interpolation-filters="sRGB">
<feFlood flood-opacity="0" result="BackgroundImageFix"/>
<feBlend mode="normal" in="SourceGraphic" in2="BackgroundImageFix" result="shape"/>
<feGaussianBlur stdDeviation="34.5156" result="effect1_foregroundBlur_1391_5814"/>
</filter>
<filter id="filter24_f_1391_5814" x="451.164" y="189.131" width="791.587" height="638.197" filterUnits="userSpaceOnUse" color-interpolation-filters="sRGB">
<feFlood flood-opacity="0" result="BackgroundImageFix"/>
<feBlend mode="normal" in="SourceGraphic" in2="BackgroundImageFix" result="shape"/>
<feGaussianBlur stdDeviation="85.6499" result="effect1_foregroundBlur_1391_5814"/>
</filter>
<filter id="filter25_f_1391_5814" x="570.479" y="337.982" width="503.5" height="505.449" filterUnits="userSpaceOnUse" color-interpolation-filters="sRGB">
<feFlood flood-opacity="0" result="BackgroundImageFix"/>
<feBlend mode="normal" in="SourceGraphic" in2="BackgroundImageFix" result="shape"/>
<feGaussianBlur stdDeviation="39.629" result="effect1_foregroundBlur_1391_5814"/>
</filter>
<filter id="filter26_f_1391_5814" x="795.897" y="433.702" width="313.977" height="255.596" filterUnits="userSpaceOnUse" color-interpolation-filters="sRGB">
<feFlood flood-opacity="0" result="BackgroundImageFix"/>
<feBlend mode="normal" in="SourceGraphic" in2="BackgroundImageFix" result="shape"/>
<feGaussianBlur stdDeviation="2.55671" result="effect1_foregroundBlur_1391_5814"/>
</filter>
<filter id="filter27_f_1391_5814" x="746.654" y="421.687" width="385.207" height="330.824" filterUnits="userSpaceOnUse" color-interpolation-filters="sRGB">
<feFlood flood-opacity="0" result="BackgroundImageFix"/>
<feBlend mode="normal" in="SourceGraphic" in2="BackgroundImageFix" result="shape"/>
<feGaussianBlur stdDeviation="8.94849" result="effect1_foregroundBlur_1391_5814"/>
</filter>
<filter id="filter28_f_1391_5814" x="686.972" y="414.825" width="486.911" height="408.203" filterUnits="userSpaceOnUse" color-interpolation-filters="sRGB">
<feFlood flood-opacity="0" result="BackgroundImageFix"/>
<feBlend mode="normal" in="SourceGraphic" in2="BackgroundImageFix" result="shape"/>
<feGaussianBlur stdDeviation="12.7836" result="effect1_foregroundBlur_1391_5814"/>
</filter>
<filter id="filter29_f_1391_5814" x="679.101" y="411.266" width="572.755" height="496.054" filterUnits="userSpaceOnUse" color-interpolation-filters="sRGB">
<feFlood flood-opacity="0" result="BackgroundImageFix"/>
<feBlend mode="normal" in="SourceGraphic" in2="BackgroundImageFix" result="shape"/>
<feGaussianBlur stdDeviation="34.5156" result="effect1_foregroundBlur_1391_5814"/>
</filter>
<filter id="filter30_f_1391_5814" x="597.089" y="354.034" width="791.142" height="710.002" filterUnits="userSpaceOnUse" color-interpolation-filters="sRGB">
<feFlood flood-opacity="0" result="BackgroundImageFix"/>
<feBlend mode="normal" in="SourceGraphic" in2="BackgroundImageFix" result="shape"/>
<feGaussianBlur stdDeviation="85.6499" result="effect1_foregroundBlur_1391_5814"/>
</filter>
<filter id="filter31_f_1391_5814" x="638.144" y="399.173" width="555.643" height="513.74" filterUnits="userSpaceOnUse" color-interpolation-filters="sRGB">
<feFlood flood-opacity="0" result="BackgroundImageFix"/>
<feBlend mode="normal" in="SourceGraphic" in2="BackgroundImageFix" result="shape"/>
<feGaussianBlur stdDeviation="39.629" result="effect1_foregroundBlur_1391_5814"/>
</filter>
<filter id="filter33_f_1391_5814" x="856.021" y="500.679" width="194.642" height="210.654" filterUnits="userSpaceOnUse" color-interpolation-filters="sRGB">
<feFlood flood-opacity="0" result="BackgroundImageFix"/>
<feBlend mode="normal" in="SourceGraphic" in2="BackgroundImageFix" result="shape"/>
<feGaussianBlur stdDeviation="5.8687" result="effect1_foregroundBlur_1391_5814"/>
</filter>
<filter id="filter34_f_1391_5814" x="777.887" y="468.186" width="269.759" height="270.93" filterUnits="userSpaceOnUse" color-interpolation-filters="sRGB">
<feFlood flood-opacity="0" result="BackgroundImageFix"/>
<feBlend mode="normal" in="SourceGraphic" in2="BackgroundImageFix" result="shape"/>
<feGaussianBlur stdDeviation="8.38386" result="effect1_foregroundBlur_1391_5814"/>
</filter>
<filter id="filter35_f_1391_5814" x="751.076" y="447.996" width="313.399" height="344.896" filterUnits="userSpaceOnUse" color-interpolation-filters="sRGB">
<feFlood flood-opacity="0" result="BackgroundImageFix"/>
<feBlend mode="normal" in="SourceGraphic" in2="BackgroundImageFix" result="shape"/>
<feGaussianBlur stdDeviation="22.6364" result="effect1_foregroundBlur_1391_5814"/>
</filter>
<filter id="filter36_f_1391_5814" x="655.073" y="416.902" width="480.287" height="467.267" filterUnits="userSpaceOnUse" color-interpolation-filters="sRGB">
<feFlood flood-opacity="0" result="BackgroundImageFix"/>
<feBlend mode="normal" in="SourceGraphic" in2="BackgroundImageFix" result="shape"/>
<feGaussianBlur stdDeviation="56.1719" result="effect1_foregroundBlur_1391_5814"/>
</filter>
<filter id="filter37_f_1391_5814" x="735.419" y="435.825" width="321.601" height="325.074" filterUnits="userSpaceOnUse" color-interpolation-filters="sRGB">
<feFlood flood-opacity="0" result="BackgroundImageFix"/>
<feBlend mode="normal" in="SourceGraphic" in2="BackgroundImageFix" result="shape"/>
<feGaussianBlur stdDeviation="25.99" result="effect1_foregroundBlur_1391_5814"/>
</filter>
<linearGradient id="paint0_linear_1391_5814" x1="161.558" y1="514.709" x2="291.692" y2="390.589" gradientUnits="userSpaceOnUse">
<stop stop-color="#C4C4C4"/>
<stop offset="0.943414" stop-color="#C4C4C4" stop-opacity="0"/>
</linearGradient>
<linearGradient id="paint1_linear_1391_5814" x1="244.817" y1="476.024" x2="131.394" y2="301.08" gradientUnits="userSpaceOnUse">
<stop stop-color="#C4C4C4"/>
<stop offset="1" stop-color="#C4C4C4" stop-opacity="0"/>
</linearGradient>
<linearGradient id="paint2_linear_1391_5814" x1="-12.3673" y1="622.301" x2="183.725" y2="280.982" gradientUnits="userSpaceOnUse">
<stop offset="0.277281" stop-color="#C4C4C4"/>
<stop offset="1" stop-color="#C4C4C4" stop-opacity="0"/>
</linearGradient>
<linearGradient id="paint3_linear_1391_5814" x1="-130.891" y1="294.726" x2="177.692" y2="456.741" gradientUnits="userSpaceOnUse">
<stop stop-color="#C4C4C4"/>
<stop offset="1" stop-color="#C4C4C4" stop-opacity="0"/>
</linearGradient>
<linearGradient id="paint4_linear_1391_5814" x1="803.655" y1="414.234" x2="664.752" y2="573.079" gradientUnits="userSpaceOnUse">
<stop stop-color="#C4C4C4"/>
<stop offset="0.943414" stop-color="#C4C4C4" stop-opacity="0"/>
</linearGradient>
<linearGradient id="paint5_linear_1391_5814" x1="710.468" y1="468.274" x2="861.565" y2="660.675" gradientUnits="userSpaceOnUse">
<stop stop-color="#C4C4C4"/>
<stop offset="1" stop-color="#C4C4C4" stop-opacity="0"/>
</linearGradient>
<linearGradient id="paint6_linear_1391_5814" x1="995.015" y1="430.479" x2="869.032" y2="708.66" gradientUnits="userSpaceOnUse">
<stop stop-color="#C4C4C4"/>
<stop offset="1" stop-color="#C4C4C4" stop-opacity="0"/>
</linearGradient>
<linearGradient id="paint7_linear_1391_5814" x1="982.45" y1="598.275" x2="745.047" y2="517.92" gradientUnits="userSpaceOnUse">
<stop stop-color="#C4C4C4"/>
<stop offset="1" stop-color="#C4C4C4" stop-opacity="0"/>
</linearGradient>
</defs>
</svg>
