<svg width="343" height="680" viewBox="0 0 343 680" fill="none" xmlns="http://www.w3.org/2000/svg">
<g filter="url(#filter0_f_1230_15848)">
<ellipse cx="249.129" cy="378.787" rx="249.129" ry="378.787" transform="matrix(0.319306 0.947652 0.947652 -0.319306 -625.95 572.704)" fill="#FFF25D"/>
</g>
<mask id="mask0_1230_15848" style="mask-type:alpha" maskUnits="userSpaceOnUse" x="-172" y="-4" width="1652" height="1563">
<path d="M1479.21 643.752L1048.43 1558.88L41.9573 1047.94L-145.944 904.63L-171.214 286.702L86.2891 -3.95203L734.812 282.059L1479.21 643.752Z" fill="url(#paint0_linear_1230_15848)"/>
</mask>
<g mask="url(#mask0_1230_15848)">
<mask id="mask1_1230_15848" style="mask-type:alpha" maskUnits="userSpaceOnUse" x="-311" y="-15" width="1826" height="1476">
<path d="M21.3042 -14.1515C-139.744 352.356 -300.84 832.867 -310.068 850.588L1088.62 1460.65L1514.95 668.98L21.3042 -14.1515Z" fill="url(#paint1_linear_1230_15848)"/>
</mask>
<g mask="url(#mask1_1230_15848)">
<path d="M179.481 894.123C306.329 950.065 470.833 865.917 522.701 748.308C574.569 630.699 591.288 453.714 455.191 393.692C387.749 363.949 340.533 249.216 234.577 272.445C126.717 296.091 74.5229 464.675 48.3581 524.002C-3.50961 641.611 52.6338 838.181 179.481 894.123Z" fill="#FFFF91"/>
<g filter="url(#filter1_f_1230_15848)">
<path d="M182.388 883.385C318.429 943.382 460.706 884.474 500.975 793.166C541.243 701.859 542.761 559.398 406.72 499.401C339.305 469.67 285.416 370.159 185.269 380.305C83.322 390.633 46.9403 523.341 26.6269 569.402C-13.6415 660.709 46.3465 823.389 182.388 883.385Z" fill="#FFFF91"/>
</g>
<g filter="url(#filter2_f_1230_15848)">
<path d="M186.521 885.195C338.997 952.44 503.582 874.807 553.305 762.061C603.028 649.316 610.752 475.987 458.277 408.743C382.718 375.419 330.139 246.157 215.607 262.711C99.018 279.562 47.7756 452.033 22.6928 508.908C-27.0301 621.653 34.0459 817.95 186.521 885.195Z" fill="#FFFF91"/>
</g>
<g filter="url(#filter3_f_1230_15848)">
<path d="M220.413 856.158C422.148 908.609 649.374 815.728 713.705 669.859C778.036 523.991 752.033 324.16 569.169 243.513C478.551 203.549 432.174 -6.80697 292.477 18.3515C150.27 43.9619 43.6325 315.166 11.1806 388.75C-53.1504 534.619 -13.2859 795.396 220.413 856.158Z" fill="#FFFF91"/>
</g>
<g filter="url(#filter4_f_1230_15848)">
<path d="M286.038 840.934C482.935 927.77 749.389 820.79 812.286 678.173C875.183 535.556 840.297 336.007 643.4 249.172C545.828 206.141 451.362 99.4647 304.117 119.36C154.227 139.613 -33.7336 409.951 -65.462 481.894C-128.359 624.511 89.1413 754.099 286.038 840.934Z" fill="#FFFF91"/>
</g>
<g filter="url(#filter5_f_1230_15848)">
<path d="M401.835 824.005C605.31 913.741 865.254 798.771 929.585 652.903C993.916 507.034 957.144 302.454 753.669 212.717C652.837 168.248 415.253 299.191 263.421 318.998C108.861 339.161 48.851 550.337 16.3991 623.921C-47.9319 769.789 198.361 734.268 401.835 824.005Z" fill="#FFFF91"/>
</g>
<g filter="url(#filter6_f_1230_15848)">
<path d="M238.557 779.71C416.598 858.229 654.645 733.603 718.976 587.734C783.307 441.866 759.825 243.146 581.785 164.627C493.557 125.717 403.544 39.671 266.687 66.0819C127.371 92.9673 63.8947 302.615 31.4429 376.198C-32.8881 522.067 60.5171 701.191 238.557 779.71Z" fill="#FFFF91"/>
</g>
</g>
</g>
<mask id="mask2_1230_15848" style="mask-type:alpha" maskUnits="userSpaceOnUse" x="-677" y="-1019" width="2891" height="2941">
<path d="M-676.778 952.625C-236.639 1368.29 324.934 1898.43 344.849 1921.25L2213.74 -49.9078L1192.11 -1018.53L-676.778 952.625Z" fill="url(#paint2_linear_1230_15848)"/>
</mask>
<g mask="url(#mask2_1230_15848)">
<path d="M879.634 557.252C994.042 436.583 986.19 236.482 892.912 148.044C799.634 59.6055 630.911 -7.60679 508.161 121.861C447.332 186.018 311.121 204.798 285.301 325.063C259.018 447.488 402.966 550.463 450.02 595.076C543.298 683.514 765.226 677.921 879.634 557.252Z" fill="#02FE28"/>
<g filter="url(#filter7_f_1230_15848)">
<path d="M870.271 551.127C992.971 421.713 991.352 244.301 911.173 168.282C830.995 92.2636 679.481 41.3299 556.781 170.744C495.977 234.876 366.467 259.949 334.154 373.998C301.26 490.096 427.335 576.14 467.782 614.487C547.96 690.506 747.571 680.542 870.271 551.127Z" fill="#02FE28"/>
</g>
<g filter="url(#filter8_f_1230_15848)">
<path d="M873.982 547.206C1011.5 402.157 999.667 193.811 900.816 100.089C801.966 6.3673 620.357 -61.8998 482.834 83.1486C414.684 155.027 254.08 168.482 222.338 300.552C190.026 434.993 351.948 550.978 401.813 598.256C500.663 691.978 736.459 692.254 873.982 547.206Z" fill="#02FE28"/>
</g>
<g filter="url(#filter9_f_1230_15848)">
<path d="M878.15 519.363C1023.69 317.291 1036.13 47.3954 920.437 -62.2936C804.746 -171.983 593.499 -199.668 428.567 -25.7116C346.836 60.4925 115.678 51.76 76.1855 208.8C35.9838 368.662 216.249 494.558 274.61 549.89C390.301 659.579 709.546 753.452 878.15 519.363Z" fill="#02FE28"/>
</g>
<g filter="url(#filter10_f_1230_15848)">
<path d="M888.537 414.636C1066.13 227.33 1069.95 -75.2436 956.84 -182.487C843.728 -289.731 628.656 -307.798 451.068 -120.492C363.064 -27.673 213.044 44.0987 164.816 207.781C115.721 374.403 294.194 495.145 351.253 549.244C464.365 656.488 710.949 601.942 888.537 414.636Z" fill="#02FE28"/>
</g>
<g filter="url(#filter11_f_1230_15848)">
<path d="M912.509 298.927C1096.03 105.364 1101.57 -205.82 985.875 -315.509C870.183 -425.198 649.223 -442.639 465.703 -249.075C374.759 -153.155 220.184 -78.5517 169.748 90.0321C118.405 261.645 301.203 384.868 359.564 440.201C475.255 549.89 728.989 492.49 912.509 298.927Z" fill="#02FE28"/>
</g>
<g filter="url(#filter12_f_1230_15848)">
<path d="M792.864 461.957C953.445 292.589 939.232 2.23593 823.541 -107.453C707.849 -217.142 498.876 -247.226 338.295 -77.8576C258.719 6.07243 131.325 78.8015 94.3946 233.14C56.8004 390.252 236.473 516.773 294.834 572.105C410.525 681.794 632.284 631.325 792.864 461.957Z" fill="#02FE28"/>
</g>
</g>
<mask id="mask3_1230_15848" style="mask-type:alpha" maskUnits="userSpaceOnUse" x="-266" y="-802" width="1928" height="1871">
<path d="M448.92 1068.87C1014.79 700.108 1632.33 297.472 1661.25 280.239L946.619 -801.77L-265.708 -13.1392L448.92 1068.87Z" fill="url(#paint3_linear_1230_15848)"/>
</mask>
<g mask="url(#mask3_1230_15848)">
<path d="M784.478 179.374C734.899 103.159 614.395 90.3526 543.731 136.32C473.067 182.288 400.403 273.464 453.597 355.236C479.957 395.758 464.726 475.687 531.233 500.94C598.934 526.647 688.062 452.809 723.708 429.62C794.372 383.653 834.056 255.589 784.478 179.374Z" fill="#FFFF91"/>
<path d="M777.405 181.754C717.81 90.1405 599.598 73.7282 531.857 117.795C464.115 161.861 397.701 254.256 457.296 345.869C486.829 391.268 469.33 481.099 538.151 513.093C608.209 545.661 698.208 469.347 732.38 447.117C800.122 403.051 837 273.367 777.405 181.754Z" fill="#FFFF91"/>
<g filter="url(#filter14_f_1230_15848)">
<path d="M748.377 185.539C656.429 84.3788 498.356 53.869 410.712 110.882C323.069 167.895 265.667 286.938 337.139 396.81C372.557 451.257 322.566 583.387 408.291 619.683C495.555 656.631 651.384 545.978 695.596 517.218C783.24 460.205 854.893 302.727 748.377 185.539Z" fill="#FFFF91"/>
</g>
<g filter="url(#filter15_f_1230_15848)">
<path d="M706.891 170.362C629.933 52.0585 445.265 15.2187 359.575 70.9607C273.885 126.703 221.461 248.777 298.419 367.08C336.555 425.705 350.157 518.16 438.137 560.053C527.698 602.699 727.866 521.693 771.093 493.574C856.782 437.832 783.848 288.665 706.891 170.362Z" fill="#FFFF91"/>
</g>
<g filter="url(#filter16_f_1230_15848)">
<path d="M637.249 138.113C557.72 15.8573 373.76 -14.2606 286.116 42.7523C198.473 99.7653 145.28 225.279 224.808 347.534C264.218 408.118 441.632 421.446 532.099 465.033C624.192 509.403 732.889 414.984 777.1 386.223C864.744 329.21 716.777 260.368 637.249 138.113Z" fill="#FFFF91"/>
</g>
<g filter="url(#filter17_f_1230_15848)">
<path d="M710.988 221.005C641.401 114.032 465.999 97.0697 378.355 154.083C290.712 211.096 232.324 328.624 301.912 435.598C336.396 488.608 354.952 568.139 439.566 602.729C525.701 637.94 635.752 545.603 679.964 516.843C767.608 459.83 780.575 327.979 710.988 221.005Z" fill="#FFFF91"/>
</g>
</g>
<defs>
<filter id="filter0_f_1230_15848" x="-785.623" y="192.086" width="1196.36" height="991.512" filterUnits="userSpaceOnUse" color-interpolation-filters="sRGB">
<feFlood flood-opacity="0" result="BackgroundImageFix"/>
<feBlend mode="normal" in="SourceGraphic" in2="BackgroundImageFix" result="shape"/>
<feGaussianBlur stdDeviation="115.217" result="effect1_foregroundBlur_1230_15848"/>
</filter>
<filter id="filter1_f_1230_15848" x="5.07559" y="370.365" width="528.932" height="546.568" filterUnits="userSpaceOnUse" color-interpolation-filters="sRGB">
<feFlood flood-opacity="0" result="BackgroundImageFix"/>
<feBlend mode="normal" in="SourceGraphic" in2="BackgroundImageFix" result="shape"/>
<feGaussianBlur stdDeviation="4.60869" result="effect1_foregroundBlur_1230_15848"/>
</filter>
<filter id="filter2_f_1230_15848" x="-26.5294" y="228.993" width="644.104" height="713.465" filterUnits="userSpaceOnUse" color-interpolation-filters="sRGB">
<feFlood flood-opacity="0" result="BackgroundImageFix"/>
<feBlend mode="normal" in="SourceGraphic" in2="BackgroundImageFix" result="shape"/>
<feGaussianBlur stdDeviation="16.1304" result="effect1_foregroundBlur_1230_15848"/>
</filter>
<filter id="filter3_f_1230_15848" x="-62.4761" y="-29.8176" width="854.096" height="946.855" filterUnits="userSpaceOnUse" color-interpolation-filters="sRGB">
<feFlood flood-opacity="0" result="BackgroundImageFix"/>
<feBlend mode="normal" in="SourceGraphic" in2="BackgroundImageFix" result="shape"/>
<feGaussianBlur stdDeviation="23.0435" result="effect1_foregroundBlur_1230_15848"/>
</filter>
<filter id="filter4_f_1230_15848" x="-200.946" y="-7.52157" width="1166.15" height="1004.15" filterUnits="userSpaceOnUse" color-interpolation-filters="sRGB">
<feFlood flood-opacity="0" result="BackgroundImageFix"/>
<feBlend mode="normal" in="SourceGraphic" in2="BackgroundImageFix" result="shape"/>
<feGaussianBlur stdDeviation="62.2173" result="effect1_foregroundBlur_1230_15848"/>
</filter>
<filter id="filter5_f_1230_15848" x="-302.807" y="-105.219" width="1570.03" height="1269.66" filterUnits="userSpaceOnUse" color-interpolation-filters="sRGB">
<feFlood flood-opacity="0" result="BackgroundImageFix"/>
<feBlend mode="normal" in="SourceGraphic" in2="BackgroundImageFix" result="shape"/>
<feGaussianBlur stdDeviation="154.391" result="effect1_foregroundBlur_1230_15848"/>
</filter>
<filter id="filter6_f_1230_15848" x="-131.773" y="-81.737" width="1026.22" height="1028.6" filterUnits="userSpaceOnUse" color-interpolation-filters="sRGB">
<feFlood flood-opacity="0" result="BackgroundImageFix"/>
<feBlend mode="normal" in="SourceGraphic" in2="BackgroundImageFix" result="shape"/>
<feGaussianBlur stdDeviation="71.4347" result="effect1_foregroundBlur_1230_15848"/>
</filter>
<filter id="filter7_f_1230_15848" x="319.522" y="82.2162" width="657.215" height="589.324" filterUnits="userSpaceOnUse" color-interpolation-filters="sRGB">
<feFlood flood-opacity="0" result="BackgroundImageFix"/>
<feBlend mode="normal" in="SourceGraphic" in2="BackgroundImageFix" result="shape"/>
<feGaussianBlur stdDeviation="4.60869" result="effect1_foregroundBlur_1230_15848"/>
</filter>
<filter id="filter8_f_1230_15848" x="185.85" y="-32.9105" width="822.54" height="728.461" filterUnits="userSpaceOnUse" color-interpolation-filters="sRGB">
<feFlood flood-opacity="0" result="BackgroundImageFix"/>
<feBlend mode="normal" in="SourceGraphic" in2="BackgroundImageFix" result="shape"/>
<feGaussianBlur stdDeviation="16.1304" result="effect1_foregroundBlur_1230_15848"/>
</filter>
<filter id="filter9_f_1230_15848" x="24.3086" y="-196.483" width="1020.11" height="907.179" filterUnits="userSpaceOnUse" color-interpolation-filters="sRGB">
<feFlood flood-opacity="0" result="BackgroundImageFix"/>
<feBlend mode="normal" in="SourceGraphic" in2="BackgroundImageFix" result="shape"/>
<feGaussianBlur stdDeviation="23.0435" result="effect1_foregroundBlur_1230_15848"/>
</filter>
<filter id="filter10_f_1230_15848" x="31.934" y="-387.001" width="1125.89" height="1115.1" filterUnits="userSpaceOnUse" color-interpolation-filters="sRGB">
<feFlood flood-opacity="0" result="BackgroundImageFix"/>
<feBlend mode="normal" in="SourceGraphic" in2="BackgroundImageFix" result="shape"/>
<feGaussianBlur stdDeviation="62.2173" result="effect1_foregroundBlur_1230_15848"/>
</filter>
<filter id="filter11_f_1230_15848" x="-148.023" y="-705.544" width="1520.17" height="1509.68" filterUnits="userSpaceOnUse" color-interpolation-filters="sRGB">
<feFlood flood-opacity="0" result="BackgroundImageFix"/>
<feBlend mode="normal" in="SourceGraphic" in2="BackgroundImageFix" result="shape"/>
<feGaussianBlur stdDeviation="154.391" result="effect1_foregroundBlur_1230_15848"/>
</filter>
<filter id="filter12_f_1230_15848" x="-53.5984" y="-340.171" width="1108.36" height="1113.27" filterUnits="userSpaceOnUse" color-interpolation-filters="sRGB">
<feFlood flood-opacity="0" result="BackgroundImageFix"/>
<feBlend mode="normal" in="SourceGraphic" in2="BackgroundImageFix" result="shape"/>
<feGaussianBlur stdDeviation="71.4347" result="effect1_foregroundBlur_1230_15848"/>
</filter>
<filter id="filter14_f_1230_15848" x="274.652" y="52.1904" width="557.285" height="605.187" filterUnits="userSpaceOnUse" color-interpolation-filters="sRGB">
<feFlood flood-opacity="0" result="BackgroundImageFix"/>
<feBlend mode="normal" in="SourceGraphic" in2="BackgroundImageFix" result="shape"/>
<feGaussianBlur stdDeviation="15.1126" result="effect1_foregroundBlur_1230_15848"/>
</filter>
<filter id="filter15_f_1230_15848" x="179.406" y="-36.1304" width="711.894" height="689.954" filterUnits="userSpaceOnUse" color-interpolation-filters="sRGB">
<feFlood flood-opacity="0" result="BackgroundImageFix"/>
<feBlend mode="normal" in="SourceGraphic" in2="BackgroundImageFix" result="shape"/>
<feGaussianBlur stdDeviation="40.8041" result="effect1_foregroundBlur_1230_15848"/>
</filter>
<filter id="filter16_f_1230_15848" x="-16.6576" y="-187.563" width="1023.15" height="866.775" filterUnits="userSpaceOnUse" color-interpolation-filters="sRGB">
<feFlood flood-opacity="0" result="BackgroundImageFix"/>
<feBlend mode="normal" in="SourceGraphic" in2="BackgroundImageFix" result="shape"/>
<feGaussianBlur stdDeviation="101.255" result="effect1_foregroundBlur_1230_15848"/>
</filter>
<filter id="filter17_f_1230_15848" x="177.451" y="28.2938" width="671.836" height="676.026" filterUnits="userSpaceOnUse" color-interpolation-filters="sRGB">
<feFlood flood-opacity="0" result="BackgroundImageFix"/>
<feBlend mode="normal" in="SourceGraphic" in2="BackgroundImageFix" result="shape"/>
<feGaussianBlur stdDeviation="46.8491" result="effect1_foregroundBlur_1230_15848"/>
</filter>
<linearGradient id="paint0_linear_1230_15848" x1="467.555" y1="795.626" x2="66.9167" y2="578.144" gradientUnits="userSpaceOnUse">
<stop stop-color="#C4C4C4"/>
<stop offset="0.943414" stop-color="#C4C4C4" stop-opacity="0"/>
</linearGradient>
<linearGradient id="paint1_linear_1230_15848" x1="238.208" y1="756.132" x2="399.829" y2="252.94" gradientUnits="userSpaceOnUse">
<stop stop-color="#C4C4C4"/>
<stop offset="1" stop-color="#C4C4C4" stop-opacity="0"/>
</linearGradient>
<linearGradient id="paint2_linear_1230_15848" x1="964.395" y1="943.656" x2="258.476" y2="238.431" gradientUnits="userSpaceOnUse">
<stop offset="0.277281" stop-color="#C4C4C4"/>
<stop offset="1" stop-color="#C4C4C4" stop-opacity="0"/>
</linearGradient>
<linearGradient id="paint3_linear_1230_15848" x1="1037.38" y1="63.628" x2="389.676" y2="664.478" gradientUnits="userSpaceOnUse">
<stop stop-color="#C4C4C4"/>
<stop offset="1" stop-color="#C4C4C4" stop-opacity="0"/>
</linearGradient>
</defs>
</svg>
