<svg width="45" height="55" viewBox="0 0 45 55" fill="none" xmlns="http://www.w3.org/2000/svg">
<path d="M39.1901 1.0003C42.806 12.4993 45.3265 24.7597 40.4977 36.1594C39.1592 39.3193 35.949 44.1762 32.0007 44.4281C28.5695 44.647 24.6265 41.76 22.3303 39.5033C20.0859 37.2975 18.19 34.1667 18.2102 30.9904C18.2194 29.5492 18.8406 28.1145 20.4041 28.8052C24.5503 30.6367 24.4273 37.3968 21.2588 39.9038C16.5395 43.6377 9.36138 44.2095 5.38976 48.7826C4.93458 49.3067 2.11623 51.7833 3.17178 52.7C4.26081 53.6458 6.48685 52.5086 7.72838 52.5667C9.62627 52.6556 3.93176 52.9894 2.13777 53.5876C0.722503 54.0595 0.794282 54.3711 1.452 52.6349C2.12664 50.854 2.76552 47.9284 1.72517 46.1843" stroke="#FF671F" stroke-width="2" stroke-linecap="round"/>
</svg>
