<svg width="24" height="24" viewBox="0 0 24 24" fill="none" xmlns="http://www.w3.org/2000/svg">
<rect width="24" height="24" rx="12" transform="matrix(-1 -1.01877e-07 -1.01877e-07 1 24 2.44505e-06)" fill="#FF090B"/>
<path d="M17.3033 7.75738C17.5962 7.46449 17.5962 6.98962 17.3033 6.69672C17.0104 6.40383 16.5355 6.40383 16.2426 6.69672L6.69668 16.2427C6.40379 16.5356 6.40378 17.0104 6.69668 17.3033C6.98957 17.5962 7.46444 17.5962 7.75734 17.3033L17.3033 7.75738Z" fill="white"/>
<path d="M7.75734 6.69672C7.46445 6.40383 6.98957 6.40383 6.69668 6.69672C6.40379 6.98962 6.40379 7.46449 6.69668 7.75738L16.2426 17.3033C16.5355 17.5962 17.0104 17.5962 17.3033 17.3033C17.5962 17.0104 17.5962 16.5356 17.3033 16.2427L7.75734 6.69672Z" fill="white"/>
</svg>
